<svg width="1265" height="1934" viewBox="0 0 1265 1934" fill="none" xmlns="http://www.w3.org/2000/svg">
<path d="M348 3C1321.28 156.451 1206.93 413.706 1033.02 467.153L399 675.5" stroke="black" stroke-opacity="0.64" stroke-width="5" stroke-linecap="round"/>
<path d="M1181.53 1024.42C1339.99 1094.42 1013.99 1268.5 899.491 1311C784.993 1353.5 110.49 1571.5 110.49 1571.5" stroke="black" stroke-opacity="0.64" stroke-width="5" stroke-linecap="round"/>
<path d="M1179.49 1023.5C1201.49 1014 -192.89 906.466 397.991 676" stroke="black" stroke-opacity="0.64" stroke-width="5" stroke-linecap="round"/>
<path d="M601.5 1799C550.501 1689 -112.998 1724.5 108.997 1573" stroke="black" stroke-opacity="0.64" stroke-width="5" stroke-linecap="round"/>
<path d="M349 8.5C1322.28 161.951 1069.5 422.5 911.518 449.153L390 650.001" stroke="black" stroke-opacity="0.64" stroke-width="5" stroke-linecap="round" stroke-dasharray="20 20"/>
<path d="M1145 1042.5C1402.16 1182.8 134.741 1527.63 93 1552" stroke="black" stroke-opacity="0.64" stroke-width="5" stroke-linecap="round" stroke-dasharray="20 20"/>
<path d="M399.5 647C-18 771.5 147 854 280.999 893L521 956L835 1005L1138 1040.5" stroke="black" stroke-opacity="0.64" stroke-width="5" stroke-linecap="round" stroke-dasharray="20 20"/>
<path d="M80.4992 1557C-141.409 1639.38 211 1726 376.5 1744" stroke="black" stroke-opacity="0.64" stroke-width="5" stroke-linecap="round" stroke-dasharray="20 20"/>
<path d="M391.999 1747.42C398.924 1751.28 586.499 1780 569.501 1800" stroke="black" stroke-opacity="0.64" stroke-width="5" stroke-linecap="round" stroke-dasharray="20 20"/>
</svg>
